<svg xmlns="http://www.w3.org/2000/svg" viewBox="0 0 26 26" width="16" height="16"><path d="M7 0C4.797 0 3 1.797 3 4v18c0 2.203 1.797 4 4 4h12c2.203 0 4-1.797 4-4V8c0-1.063-.973-2.07-2.719-3.781-.242-.239-.504-.504-.75-.75s-.511-.477-.75-.719C17.071 1.004 16.063 0 15 0zm0 2h7.281c.723.184.719 1.05.719 1.938V7c0 .55.45 1 1 1h3c.996 0 2 .004 2 1v13a2 2 0 01-2 2H7a2 2 0 01-2-2V4a2 2 0 012-2zm.813 8c-.551.05-.958.543-.907 1.094.051.55.543.957 1.094.906h10c.36.004.695-.184.879-.496a1.01 1.01 0 000-1.008c-.184-.312-.52-.5-.879-.496H7.813zm0 4c-.551.05-.958.543-.907 1.094.051.55.543.957 1.094.906h8c.36.004.695-.184.879-.496a1.01 1.01 0 000-1.008c-.184-.312-.52-.5-.879-.496H7.813zm0 4c-.551.05-.958.543-.907 1.094.051.55.543.957 1.094.906h10c.36.004.695-.184.879-.496a1.01 1.01 0 000-1.008c-.184-.312-.52-.5-.879-.496H7.813z"/></svg>