<svg width="16" height="14" viewBox="0 0 16 14" fill="none" xmlns="http://www.w3.org/2000/svg"><path d="M3.39151 7.51754e-05C3.23501 0.00262693 3.08587 0.0698411 2.97682 0.186966C2.86778 0.304091 2.80774 0.461557 2.80989 0.624805V12.9509C2.80878 13.0325 2.82324 13.1136 2.85244 13.1894C2.88164 13.2652 2.92498 13.3342 2.97996 13.3923C3.03493 13.4505 3.10044 13.4967 3.17268 13.5282C3.24492 13.5597 3.32244 13.576 3.40074 13.576C3.47904 13.576 3.55657 13.5597 3.6288 13.5282C3.70104 13.4967 3.76655 13.4505 3.82152 13.3923C3.8765 13.3342 3.91985 13.2652 3.94904 13.1894C3.97824 13.1136 3.9927 13.0325 3.9916 12.9509V0.624805C3.99268 0.54235 3.97789 0.460506 3.9481 0.384122C3.91831 0.307737 3.87413 0.238364 3.81817 0.18011C3.76222 0.121856 3.69562 0.0759065 3.62234 0.0449821C3.54905 0.0140577 3.47056 -0.00121266 3.39151 7.51754e-05ZM12.8452 7.51754e-05C12.6887 0.00262693 12.5395 0.0698411 12.4305 0.186966C12.3215 0.304091 12.2614 0.461557 12.2636 0.624805V12.9509C12.2624 13.0325 12.2769 13.1136 12.3061 13.1894C12.3353 13.2652 12.3786 13.3342 12.4336 13.3923C12.4886 13.4505 12.5541 13.4967 12.6263 13.5282C12.6986 13.5597 12.7761 13.576 12.8544 13.576C12.9327 13.576 13.0102 13.5597 13.0825 13.5282C13.1547 13.4967 13.2202 13.4505 13.2752 13.3923C13.3302 13.3342 13.3735 13.2652 13.4027 13.1894C13.4319 13.1136 13.4464 13.0325 13.4453 12.9509V0.624805C13.4463 0.54235 13.4316 0.460506 13.4018 0.384122C13.372 0.307737 13.3278 0.238364 13.2718 0.18011C13.2159 0.121856 13.1493 0.0759065 13.076 0.0449821C13.0027 0.0140577 12.9242 -0.00121266 12.8452 7.51754e-05ZM1.02809 2.46529C0.87159 2.46784 0.722451 2.53505 0.613408 2.65218C0.504365 2.7693 0.444327 2.92677 0.44647 3.09002V10.4857C0.445363 10.5673 0.459828 10.6484 0.489024 10.7242C0.51822 10.8 0.561566 10.869 0.616542 10.9271C0.671517 10.9853 0.737027 11.0315 0.809263 11.063C0.881499 11.0945 0.959021 11.1107 1.03732 11.1107C1.11563 11.1107 1.19315 11.0945 1.26539 11.063C1.33762 11.0315 1.40313 10.9853 1.45811 10.9271C1.51308 10.869 1.55643 10.8 1.58562 10.7242C1.61482 10.6484 1.62929 10.5673 1.62818 10.4857V3.09002C1.62926 3.00756 1.61447 2.92572 1.58468 2.84934C1.55489 2.77295 1.51071 2.70358 1.45476 2.64532C1.3988 2.58707 1.33221 2.54112 1.25892 2.5102C1.18563 2.47927 1.10714 2.464 1.02809 2.46529ZM5.75493 3.08159C5.59842 3.08414 5.44929 3.15136 5.34024 3.26848C5.2312 3.38561 5.17116 3.54307 5.1733 3.70632V9.86936C5.1722 9.95102 5.18666 10.0321 5.21586 10.1079C5.24505 10.1837 5.2884 10.2527 5.34338 10.3108C5.39835 10.369 5.46386 10.4152 5.5361 10.4467C5.60833 10.4782 5.68586 10.4944 5.76416 10.4944C5.84246 10.4944 5.91998 10.4782 5.99222 10.4467C6.06446 10.4152 6.12997 10.369 6.18494 10.3108C6.23992 10.2527 6.28326 10.1837 6.31246 10.1079C6.34166 10.0321 6.35612 9.95102 6.35501 9.86936V3.70632C6.35609 3.62387 6.3413 3.54202 6.31152 3.46564C6.28173 3.38925 6.23755 3.31988 6.18159 3.26163C6.12564 3.20337 6.05904 3.15742 5.98575 3.1265C5.91247 3.09558 5.83397 3.0803 5.75493 3.08159ZM10.4818 3.08159C10.3253 3.08414 10.1761 3.15136 10.0671 3.26848C9.95803 3.38561 9.89799 3.54307 9.90014 3.70632V9.86936C9.89903 9.95102 9.9135 10.0321 9.94269 10.1079C9.97189 10.1837 10.0152 10.2527 10.0702 10.3108C10.1252 10.369 10.1907 10.4152 10.2629 10.4467C10.3352 10.4782 10.4127 10.4944 10.491 10.4944C10.5693 10.4944 10.6468 10.4782 10.7191 10.4467C10.7913 10.4152 10.8568 10.369 10.9118 10.3108C10.9668 10.2527 11.0101 10.1837 11.0393 10.1079C11.0685 10.0321 11.083 9.95102 11.0818 9.86936V3.70632C11.0829 3.62387 11.0681 3.54202 11.0383 3.46564C11.0086 3.38925 10.9644 3.31988 10.9084 3.26163C10.8525 3.20337 10.7859 3.15742 10.7126 3.1265C10.6393 3.09558 10.5608 3.0803 10.4818 3.08159ZM15.2086 4.3142C15.0521 4.31675 14.903 4.38397 14.7939 4.50109C14.6849 4.61821 14.6248 4.77568 14.627 4.93893V8.63675C14.6259 8.71842 14.6403 8.7995 14.6695 8.87529C14.6987 8.95107 14.7421 9.02005 14.797 9.07821C14.852 9.13637 14.9175 9.18255 14.9898 9.21408C15.062 9.2456 15.1395 9.26183 15.2178 9.26183C15.2961 9.26183 15.3737 9.2456 15.4459 9.21408C15.5181 9.18255 15.5836 9.13637 15.6386 9.07821C15.6936 9.02005 15.7369 8.95107 15.7661 8.87529C15.7953 8.7995 15.8098 8.71842 15.8087 8.63675V4.93893C15.8098 4.85647 15.795 4.77463 15.7652 4.69825C15.7354 4.62186 15.6912 4.55249 15.6353 4.49423C15.5793 4.43598 15.5127 4.39003 15.4394 4.35911C15.3661 4.32818 15.2876 4.31291 15.2086 4.3142ZM8.11834 4.9305C7.96184 4.93305 7.8127 5.00027 7.70366 5.11739C7.59462 5.23452 7.53458 5.39198 7.53672 5.55523V8.02045C7.53561 8.10211 7.55008 8.1832 7.57927 8.25898C7.60847 8.33477 7.65182 8.40375 7.70679 8.46191C7.76177 8.52007 7.82728 8.56625 7.89951 8.59777C7.97175 8.62929 8.04927 8.64553 8.12758 8.64553C8.20588 8.64553 8.2834 8.62929 8.35564 8.59777C8.42787 8.56625 8.49338 8.52007 8.54836 8.46191C8.60333 8.40375 8.64668 8.33477 8.67588 8.25898C8.70507 8.1832 8.71954 8.10211 8.71843 8.02045V5.55523C8.71951 5.47278 8.70472 5.39093 8.67493 5.31455C8.64514 5.23816 8.60096 5.16879 8.54501 5.11054C8.48905 5.05228 8.42246 5.00633 8.34917 4.97541C8.27588 4.94449 8.19739 4.92921 8.11834 4.9305Z" fill="#003366"/></svg>