<svg id="Layer_1" data-name="Layer 1" xmlns="http://www.w3.org/2000/svg" viewBox="0 0 937.82 299.18"><defs><style>.cls-1{fill:#1976d2;}</style></defs><path class="cls-1" d="M199.11,145.11s13.72-31.35,13-31.94-31.37,18.66-31.37,18.66S143.2,103,141.72,103c-2,0-33.92,26.28-33.92,26.28s-34-24.59-34.76-23.74,11,39.58,11,39.58C34.53,166.19,0,211.71,0,266.87,0,341.6,63.39,402.18,141.6,402.18c80.78,0,141.59-60.58,141.59-135.31C283.19,211.71,248.65,166.18,199.11,145.11ZM213,266.49c-.25-25.55-15.69-47.68-38.26-58.8l5.17-13.07C208,207.78,227.37,235,227.57,266.49Zm32.07,0c-.14-38.58-24.21-71.87-59-87.44l7.47-18.87c42.86,18.47,72.65,59.12,72.71,106.31Z" transform="translate(0 -103)"/><path class="cls-1" d="M353.35,175.53v50a47.56,47.56,0,0,1,14.81-10.27,42.56,42.56,0,0,1,17-3.43q19.74,0,33.53,14.91T432.53,265q0,22.5-14.26,37.64t-33.81,15.14a41.93,41.93,0,0,1-16.2-3.1,49.5,49.5,0,0,1-14.91-10.14v10.65h-25.1V175.53Zm26.58,59.64q-12,0-19.82,8.15t-7.87,21.3q0,13.42,7.87,21.71a26.15,26.15,0,0,0,19.82,8.29,25.7,25.7,0,0,0,19.49-8.43q7.92-8.42,7.92-21.48t-7.78-21.26A25.79,25.79,0,0,0,379.93,235.17Z" transform="translate(0 -103)"/><path class="cls-1" d="M447.83,175.53h25.29V315.18H447.83Z" transform="translate(0 -103)"/><path class="cls-1" d="M493.15,214.42h25.56V263q0,14.18,1.95,19.68a17.18,17.18,0,0,0,6.26,8.56,17.92,17.92,0,0,0,10.63,3.06,18.56,18.56,0,0,0,10.73-3,17.59,17.59,0,0,0,6.54-8.84q1.57-4.35,1.58-18.62V214.42h25.28v42.69q0,26.4-4.17,36.12a39.31,39.31,0,0,1-15,18.2q-9.91,6.35-25.19,6.34-16.58,0-26.81-7.4t-14.4-20.66q-3-9.16-3-33.34Z" transform="translate(0 -103)"/><path class="cls-1" d="M629.31,175.53v50a47.6,47.6,0,0,1,14.82-10.27,42.53,42.53,0,0,1,17-3.43q19.73,0,33.52,14.91T708.49,265q0,22.5-14.26,37.64t-33.8,15.14a41.94,41.94,0,0,1-16.21-3.1,49.5,49.5,0,0,1-14.91-10.14v10.65h-25.1V175.53Zm26.58,59.64a26.37,26.37,0,0,0-19.82,8.15q-7.87,8.15-7.87,21.3,0,13.42,7.87,21.71a26.16,26.16,0,0,0,19.82,8.29,25.7,25.7,0,0,0,19.49-8.43q7.92-8.42,7.92-21.48t-7.78-21.26A25.79,25.79,0,0,0,655.89,235.17Z" transform="translate(0 -103)"/><path class="cls-1" d="M720.65,214.42h21.67v12.69a27,27,0,0,1,9.35-11.39,22.59,22.59,0,0,1,12.78-3.89,23.63,23.63,0,0,1,10.28,2.59l-7.87,21.76a17.38,17.38,0,0,0-7.32-2.22q-5.84,0-9.86,7.23t-4,28.33l.09,4.91v40.75H720.65Z" transform="translate(0 -103)"/><path class="cls-1" d="M778.46,214.42h21.67v12.69a27.09,27.09,0,0,1,9.36-11.39,22.59,22.59,0,0,1,12.78-3.89,23.66,23.66,0,0,1,10.28,2.59l-7.88,21.76a17.38,17.38,0,0,0-7.31-2.22q-5.83,0-9.87,7.23t-4,28.33l.09,4.91v40.75h-25.1Z" transform="translate(0 -103)"/><path class="cls-1" d="M831,214.42h25.84L883,277.64l28.88-63.22h25.91L874.72,352H848.61l20.71-44.38Z" transform="translate(0 -103)"/><path class="cls-1" d="M605.27,364V338.63q0-1.47-.24-6.54h4.24l0,4a6.33,6.33,0,0,1,2.76-3.23,8.78,8.78,0,0,1,4.79-1.36,9.08,9.08,0,0,1,7.31,3.25,12.56,12.56,0,0,1,2.74,8.36,13.07,13.07,0,0,1-2.78,8.58A9.7,9.7,0,0,1,612,353.86a6,6,0,0,1-2.7-2.89v13Zm10.8-12.18a5.69,5.69,0,0,0,4.9-2.35,10.2,10.2,0,0,0,1.73-6.19,10,10,0,0,0-1.73-6.13,5.72,5.72,0,0,0-4.88-2.32,6,6,0,0,0-5.08,2.41,10.17,10.17,0,0,0-1.83,6.33,9.34,9.34,0,0,0,1.8,6A6.12,6.12,0,0,0,616.07,351.82Z" transform="translate(0 -103)"/><path class="cls-1" d="M643,355.09q-5.46,0-8.54-3.25a11.78,11.78,0,0,1-3.09-8.47,12,12,0,0,1,3.11-8.58q3.11-3.27,8.57-3.27t8.47,3.26a12.11,12.11,0,0,1,3,8.59,11.85,11.85,0,0,1-3.07,8.47Q648.36,355.1,643,355.09Zm0-3.29a6.61,6.61,0,0,0,5.44-2.31,9.38,9.38,0,0,0,1.87-6.12,9.54,9.54,0,0,0-1.9-6.22,7.51,7.51,0,0,0-10.89,0,9.49,9.49,0,0,0-1.91,6.22,9.28,9.28,0,0,0,1.9,6.12A6.68,6.68,0,0,0,643,351.8Z" transform="translate(0 -103)"/><path class="cls-1" d="M669.23,355.09a9.52,9.52,0,0,1-7.41-3.19,12.15,12.15,0,0,1-2.89-8.48,14.51,14.51,0,0,1,1.23-6.14,9.74,9.74,0,0,1,3.63-4.21,10.25,10.25,0,0,1,5.65-1.55,8.67,8.67,0,0,1,4.53,1.16,6.51,6.51,0,0,1,2.67,2.79V322h4.06v26.78c0,1.35.07,3.29.16,5.84h-4.11l-.08-3.82a6.49,6.49,0,0,1-2.63,3A8.57,8.57,0,0,1,669.23,355.09Zm.59-3.29a6,6,0,0,0,5.11-2.35,10.08,10.08,0,0,0,1.8-6.3,9.47,9.47,0,0,0-1.82-6,6,6,0,0,0-5-2.32,5.91,5.91,0,0,0-5,2.34,11.66,11.66,0,0,0,0,12.32A5.81,5.81,0,0,0,669.82,351.8Z" transform="translate(0 -103)"/><path class="cls-1" d="M698.15,355.09a11.06,11.06,0,0,1-8.35-3.26,11.57,11.57,0,0,1-3.13-8.35,12,12,0,0,1,3.19-8.65,11.07,11.07,0,0,1,8.38-3.31,10.12,10.12,0,0,1,7.44,2.68l-1.43,2.68a8.37,8.37,0,0,0-5.73-2.05,7.29,7.29,0,0,0-5.56,2.25,9,9,0,0,0-2.12,6.38,8.69,8.69,0,0,0,2.06,6.08,7.11,7.11,0,0,0,5.56,2.26,9.77,9.77,0,0,0,6.14-2.11l1.28,2.92A12.27,12.27,0,0,1,698.15,355.09Z" transform="translate(0 -103)"/><path class="cls-1" d="M720.74,355.09a10.81,10.81,0,0,1-4.58-.94,9.27,9.27,0,0,1-3.38-2.56,11.43,11.43,0,0,1-2-3.73,13.93,13.93,0,0,1-.71-4.51,13.5,13.5,0,0,1,1.28-6,10.38,10.38,0,0,1,3.74-4.27,10.16,10.16,0,0,1,5.69-1.6,8.43,8.43,0,0,1,4.35,1.16,8,8,0,0,1,3,3v-3.58h4v22.52h-4v-3.84a7.33,7.33,0,0,1-2.87,3.17A8.38,8.38,0,0,1,720.74,355.09Zm.57-3.29a6,6,0,0,0,5.12-2.34,10.17,10.17,0,0,0,1.77-6.29,9.56,9.56,0,0,0-1.8-6,6.11,6.11,0,0,0-5.14-2.32,6.39,6.39,0,0,0-5.34,2.33,9.57,9.57,0,0,0-1.83,6.1,9.81,9.81,0,0,0,1.84,6.18A6.38,6.38,0,0,0,721.31,351.8Z" transform="translate(0 -103)"/><path class="cls-1" d="M747.12,355.09a14.37,14.37,0,0,1-8.61-2.72l1.12-3a13.59,13.59,0,0,0,3.2,1.67,10.87,10.87,0,0,0,4,.75q4.47,0,4.47-3.29a2.31,2.31,0,0,0-1-2.07,19,19,0,0,0-3.92-1.67l-1.94-.65q-1.11-.41-1.89-.75a9.61,9.61,0,0,1-1.57-.89,5.82,5.82,0,0,1-1.28-1.16,5.17,5.17,0,0,1-.78-1.52,6.54,6.54,0,0,1-.29-2,5.87,5.87,0,0,1,.67-2.84,5.05,5.05,0,0,1,1.83-1.95,9.5,9.5,0,0,1,2.57-1.08,12.1,12.1,0,0,1,3-.36,13.55,13.55,0,0,1,7.5,2l-1.12,2.89a12.51,12.51,0,0,0-5.92-1.58,6.29,6.29,0,0,0-3.36.75,2.37,2.37,0,0,0-1.19,2.11,2.2,2.2,0,0,0,.72,1.81,11.21,11.21,0,0,0,2.84,1.35l2.26.76c.92.33,1.66.6,2.22.84a13.47,13.47,0,0,1,1.79.93,5.81,5.81,0,0,1,1.47,1.22,5.19,5.19,0,0,1,.85,1.59,6.36,6.36,0,0,1,.34,2.16,6.83,6.83,0,0,1-.68,3.15,5.34,5.34,0,0,1-1.84,2.11,9.15,9.15,0,0,1-2.53,1.13A10.89,10.89,0,0,1,747.12,355.09Z" transform="translate(0 -103)"/><path class="cls-1" d="M772.66,354.61H770.8c-3.19,0-5.38-.6-6.55-1.71s-1.77-3.14-1.77-6.08v-12h-4.32v-2.7h4.41V326.3l3.95-1.17v7h6.1v2.7h-6.1V347a9.42,9.42,0,0,0,.16,1.95,3.44,3.44,0,0,0,.52,1.26,2,2,0,0,0,1.12.76,9.14,9.14,0,0,0,1.73.34,25.67,25.67,0,0,0,2.61.1Z" transform="translate(0 -103)"/><path class="cls-1" d="M778.61,354.61V332.09h4v22.52Zm0-28.2v-3.76h4v3.76Z" transform="translate(0 -103)"/><path class="cls-1" d="M790.13,354.61V338.32c0-1,0-2,0-3.05s-.08-1.83-.12-2.37l-.07-.81h4.17l0,3.53a8.11,8.11,0,0,1,3.26-3,9.46,9.46,0,0,1,4.43-1.09c2.83,0,4.93.86,6.27,2.58s2,4.33,2,7.82v12.69h-4V341.94a10.33,10.33,0,0,0-1.09-5.39,4.21,4.21,0,0,0-3.87-1.74,7.15,7.15,0,0,0-4.63,1.72,5.67,5.67,0,0,0-2.26,4v14.11Z" transform="translate(0 -103)"/><path class="cls-1" d="M826.08,363.78a18.54,18.54,0,0,1-8.32-1.91l.64-3.49a15.06,15.06,0,0,0,7.53,2.13,7.61,7.61,0,0,0,5.57-1.93c1.32-1.29,2-3.23,2-5.84v-2.35a7.69,7.69,0,0,1-2.73,2.8,8.21,8.21,0,0,1-4.4,1.11,10.29,10.29,0,0,1-7.63-3,10.93,10.93,0,0,1-3-8.05A14.72,14.72,0,0,1,817,337.2a9.4,9.4,0,0,1,3.61-4.15,10.53,10.53,0,0,1,5.75-1.53,8.24,8.24,0,0,1,4.37,1.1,7.9,7.9,0,0,1,2.79,2.81l.06-3.34h4.17q-.24,3.65-.24,6.06v13.39a16.92,16.92,0,0,1-.66,4.87,11,11,0,0,1-2,3.86,8.83,8.83,0,0,1-3.57,2.59A13.28,13.28,0,0,1,826.08,363.78Zm.51-12.64a6.25,6.25,0,0,0,5.2-2.23,9.34,9.34,0,0,0,1.78-6A9.17,9.17,0,0,0,831.8,337a6,6,0,0,0-4.93-2.21,6.12,6.12,0,0,0-5.07,2.33,9.52,9.52,0,0,0-1.84,6.1,8.89,8.89,0,0,0,1.73,5.83A6,6,0,0,0,826.59,351.14Z" transform="translate(0 -103)"/></svg>