<svg width="14" height="15" viewBox="0 0 14 15" fill="none" xmlns="http://www.w3.org/2000/svg"><path fill-rule="evenodd" clip-rule="evenodd" d="M7.26813 14.2406C7.04565 14.2425 6.82251 14.1543 6.66246 13.9761L1.10628 7.78923C0.817437 7.46759 0.85127 6.97903 1.18185 6.698C1.51243 6.41697 2.01458 6.44989 2.30343 6.77153L6.47409 11.4156L6.47409 1.09345C6.47409 0.666337 6.82996 0.320091 7.26896 0.320091C7.70796 0.320091 8.06383 0.666337 8.06383 1.09345V11.4024L12.2352 6.7707C12.5245 6.44947 13.0267 6.41724 13.3569 6.69872C13.6871 6.98021 13.7202 7.46881 13.4309 7.79005L7.92666 13.9017C7.78364 14.1062 7.54243 14.2406 7.26896 14.2406C7.26868 14.2406 7.2684 14.2406 7.26813 14.2406Z" fill="#86357A"/></svg>