<svg width="14" height="15" viewBox="0 0 14 15" fill="none" xmlns="http://www.w3.org/2000/svg"><path fill-rule="evenodd" clip-rule="evenodd" d="M7.26813 0.759417C7.04565 0.757503 6.82251 0.845677 6.66246 1.0239L1.10628 7.21078C0.817437 7.53242 0.85127 8.02097 1.18185 8.302C1.51243 8.58303 2.01458 8.55012 2.30343 8.22848L6.47409 3.58439L6.47409 13.9066C6.47409 14.3337 6.82996 14.6799 7.26896 14.6799C7.70796 14.6799 8.06383 14.3337 8.06383 13.9066V3.59761L12.2352 8.2293C12.5245 8.55054 13.0267 8.58277 13.3569 8.30128C13.6871 8.0198 13.7202 7.5312 13.4309 7.20996L7.92666 1.09835C7.78364 0.893783 7.54243 0.759422 7.26896 0.759422C7.26868 0.759422 7.2684 0.759417 7.26813 0.759417Z" fill="#86357A"/></svg>